<?xml version="1.0" encoding="utf-8"?>
<!-- Generator: Adobe Illustrator 16.0.0, SVG Export Plug-In . SVG Version: 6.00 Build 0)  -->
<!DOCTYPE svg PUBLIC "-//W3C//DTD SVG 1.1//EN" "http://www.w3.org/Graphics/SVG/1.1/DTD/svg11.dtd">
<svg version="1.1" id="Layer_1" xmlns="http://www.w3.org/2000/svg" xmlns:xlink="http://www.w3.org/1999/xlink" x="0px" y="0px"
	 width="500px" height="500px" viewBox="0 0 500 500" enable-background="new 0 0 500 500" xml:space="preserve">
<rect fill="#c57600" width="500" height="500"/>
<rect x="59.659" y="59.659" fill="#2b1800" width="380.682" height="380.682"/>
<rect x="-471.373" y="-490.872" fill="none" width="457.477" height="367.481"/>
<g>
	<path fill="none" d="M250,228.551c-19.588,0-38.004,7.628-51.855,21.479c-28.593,28.592-28.593,75.116,0,103.709
		c13.851,13.852,32.267,21.479,51.855,21.479c19.588,0,38.004-7.627,51.855-21.479c28.592-28.594,28.592-75.117,0-103.709
		C288.004,236.179,269.588,228.551,250,228.551z"/>
	<path fill="#c57600" d="M330.139,221.746l-96.965-96.965h92.104v-40H184.89l-14.142,34.143l70.004,70.004
		c-26.786,2.149-51.68,13.608-70.891,32.818c-44.189,44.19-44.189,116.09,0,160.28c21.406,21.404,49.867,33.193,80.139,33.193
		c30.273,0,58.734-11.789,80.139-33.193C374.328,337.836,374.328,265.936,330.139,221.746z M301.855,353.74
		c-13.852,13.852-32.268,21.479-51.855,21.479c-19.588,0-38.004-7.627-51.855-21.479c-28.593-28.594-28.593-75.117,0-103.709
		c13.851-13.852,32.267-21.479,51.855-21.479c19.588,0,38.004,7.628,51.855,21.479C330.447,278.623,330.447,325.146,301.855,353.74z
		"/>
</g>
</svg>
